#!OML:ASF F:\VICON\USERDATA\INSTALL\rory3\rory3.ASF
:FULLY-SPECIFIED
:DEGREES
89
root -5.119609833116221 17.95906246426345 -4.189157069742322 -172.3632883384039 -12.399086971975187 -178.57286439021087
lfemur -27.733054204637483 -20.217794535565584 -12.788903548331067
ltibia 30.516175316491065
lfoot 27.822080517993747 -45.16594299381024
ltoes 49.68996082869435
rfemur 21.684006824843372 -12.391760342631565 23.428818668812895
rtibia 5.48931857630015
rfoot 40.17211146256316 -33.146591809144326
rtoes 27.899860144836907
lowerback -13.691265368165103 18.27915895929745 15.396080939602934
upperback -19.06315861778139 20.597528419559787 -0.5406161587386737
thorax -8.07103831769344 7.669624177646446 -6.551943986306494
lowerneck -7.179271328339503 -22.752397542148906 -6.614529457165287
upperneck 12.710302531232667 -31.52925130825747 4.293453929712373
head 6.393599251711361 -15.481370895570091 -0.31365896694173867
lclavicle -5.185559519862341e-15 -1.0368571625548467e-14
lhumerus 73.51053292115817 37.25793130845479 59.71069847201365
lradius 88.31471643140765
lwrist 11.776580587662433
lhand -32.266006344692116 15.947732371438178
lfingers 7.125020000000001
lthumb -185.4814681162756 -14.430847674762916
rclavicle -5.185559519862341e-15 -1.0368571625548467e-14
rhumerus 126.54950344796956 26.391499588923548 -46.891393408196166
rradius 79.48451973190669
rwrist 13.7228393530266
rhand -50.19369332262419 27.84915679989257
rfingers 7.125020000000001
rthumb -22.78736564000633 -0.9218285854784725
90
root -5.1204474857425595 17.95452903168399 -4.205016923236049 -171.73272773414672 -12.365753807894706 -178.2378651043933
lfemur -27.863476094472183 -20.01428781875394 -12.889840266938776
ltibia 30.48714126562551
lfoot 28.248954981546177 -44.84045082385751
ltoes 49.96679535753556
rfemur 21.590847519206676 -12.42040187358786 23.39786167022402
rtibia 5.4517185479546235
rfoot 40.03557044901548 -33.304912367020684
rtoes 28.982357825667442
lowerback -13.761811074562006 18.29617383561416 15.395456604358916
upperback -19.13631938182709 20.624549843647802 -0.7121387310638116
thorax -8.018283383637737 7.687215046683598 -6.678495181590868
lowerneck -7.40823891201529 -22.47827316991291 -6.676668074877616
upperneck 12.950605264158252 -31.0783923486714 4.091981715445384
head 6.464319032383182 -15.261748541743042 -0.3435853911264872
lclavicle -5.015525772841236e-15 -1.0223090289555124e-14
lhumerus 73.3613471428072 37.35666985906958 57.837442686469096
lradius 87.29064982627611
lwrist 10.815683310314583
lhand -31.948954280703028 15.735311947848796
lfingers 7.125020000000001
lthumb -185.17571616334038 -15.19222930449125
rclavicle -5.015525772841236e-15 -1.0223090289555124e-14
rhumerus 125.63311518038452 26.44187910314583 -47.566059055658194
rradius 79.5150488634265
rwrist 12.884370116802838
rhand -51.12142572724942 28.693273764033577
rfingers 7.125020000000001
rthumb -23.68023231946562 -0.059214400339422824
91
root -5.122376107934638 17.952685136076674 -4.232905114563516 -172.1710977823708 -12.505983995532148 -178.92950910424713
lfemur -28.017984326587865 -20.007400297492353 -13.095307778695453
ltibia 30.320119521683267
lfoot 28.375214976238787 -44.810483154511324
ltoes 49.78064692079964
rfemur 21.30230734218226 -12.445127493585723 23.27308592522814
rtibia 5.402139711339995
rfoot 39.544290265088165 -33.99992565641135
rtoes 30.115046321137186
lowerback -13.794746372086053 18.25935592336933 15.362530052459254
upperback -19.22119878831596 20.53304993111121 -0.8384647794071816
thorax -8.02162159661426 7.62295081952975 -6.809652276459627
lowerneck -7.677519739043195 -22.4175081799174 -6.705852799025303
upperneck 13.004986151899818 -30.922654320440564 3.900267365012456
head 6.475112353361908 -15.17139666806467 -0.37083788436677834
lclavicle -5.5267846265255294e-15 -1.0656859855695924e-14
lhumerus 72.79001382667165 37.03580628106956 55.668392058335854
lradius 85.84887924540357
lwrist 10.277868347783722
lhand -31.569986954708355 15.353463660521145
lfingers 7.125020000000001
lthumb -184.8103790125963 -16.369552100781462
rclavicle -5.5267846265255294e-15 -1.0656859855695924e-14
rhumerus 124.32231468990435 26.23460497715253 -48.490951380536195
rradius 79.09904280474939
rwrist 11.858658087729655
rhand -51.55604333131924 28.983258262859017
rfingers 7.125020000000001
rthumb -24.098462734528013 0.22329659613123098
92
root -5.119485060819766 17.95383008341276 -4.238487485132187 -172.1819741126895 -12.692105411668905 -179.17857143733204
lfemur -28.081350845996823 -19.925921964861963 -13.170290599056374
ltibia 30.13750061608899
lfoot 28.42061221661387 -44.640158655698194
ltoes 49.66500232526977
rfemur 21.086599914461146 -12.344506647245913 23.251517831451125
rtibia 5.443449081186493
rfoot 39.07403850265786 -34.596787789840164
rtoes 30.84107072544348
lowerback -13.715670300882525 18.24457427829089 15.372338134869748
upperback -19.215955434978607 20.4518192448545 -0.8915855186955444
thorax -7.988056746516936 7.5565623606712755 -6.8813042301332725
lowerneck -7.922373504838247 -22.252585964536824 -6.670200543818223
upperneck 13.008924414535048 -30.624548277092863 3.748015254208023
head 6.4823450096334465 -15.014084076261799 -0.39394702934000203
lclavicle -5.696973307017822e-15 -1.0798560713862119e-14
lhumerus 72.55377891166661 36.62741626242154 53.277845931862146
lradius 84.19642153515547
lwrist 10.332713856009605
lhand -30.913647433095136 14.99812536225327
lfingers 7.125020000000001
lthumb -184.1778947700745 -18.46939614392032
rclavicle -5.696973307017822e-15 -1.0798560713862119e-14
rhumerus 123.1776467522485 26.055426524244556 -49.46151240813547
rradius 78.69269417334878
rwrist 10.716228252230408
rhand -51.529678507624766 28.88863039121432
rfingers 7.125020000000001
rthumb -24.072822052767943 0.1270158629847007
